<svg width="24" height="25" viewBox="0 0 24 25" fill="none" xmlns="http://www.w3.org/2000/svg">
<g clip-path="url(#clip0_3610_1116)">
<g clip-path="url(#clip1_3610_1116)">
<g clip-path="url(#clip2_3610_1116)">
<path d="M14.0059 20.2759V22.2759H2.00586V20.2759H14.0059ZM14.5909 0.961937L22.3689 8.73994L20.9549 10.1539L19.8939 9.80094L17.4189 12.2759L23.0759 17.9329L21.6619 19.3469L16.0049 13.6899L13.6009 16.0929L13.8839 17.2239L12.4689 18.6389L4.69086 10.8599L6.10486 9.44594L7.23686 9.72894L13.5299 3.43594L13.1769 2.37594L14.5909 0.961937ZM15.2979 4.49694L8.22686 11.5689L11.7619 15.1039L18.8329 8.03294L15.2979 4.49694Z" fill="black"/>
</g>
</g>
</g>
<defs>
<clipPath id="clip0_3610_1116">
<rect width="24" height="24" fill="white" transform="translate(0 0.273438)"/>
</clipPath>
<clipPath id="clip1_3610_1116">
<rect width="24" height="24" fill="white" transform="translate(0 0.273438)"/>
</clipPath>
<clipPath id="clip2_3610_1116">
<rect width="24" height="24" fill="white" transform="translate(0 0.273438)"/>
</clipPath>
</defs>
</svg>
