<svg width="24" height="25" viewBox="0 0 24 25" fill="none" xmlns="http://www.w3.org/2000/svg">
<path d="M11.99 2.27344C6.47 2.27344 2 6.75344 2 12.2734C2 17.7934 6.47 22.2734 11.99 22.2734C17.52 22.2734 22 17.7934 22 12.2734C22 6.75344 17.52 2.27344 11.99 2.27344ZM12 20.2734C7.58 20.2734 4 16.6934 4 12.2734C4 7.85344 7.58 4.27344 12 4.27344C16.42 4.27344 20 7.85344 20 12.2734C20 16.6934 16.42 20.2734 12 20.2734ZM11.78 7.27344H11.72C11.32 7.27344 11 7.59344 11 7.99344V12.7134C11 13.0634 11.18 13.3934 11.49 13.5734L15.64 16.0634C15.98 16.2634 16.42 16.1634 16.62 15.8234C16.6702 15.7425 16.7036 15.6522 16.7182 15.5581C16.7328 15.4639 16.7283 15.3678 16.705 15.2754C16.6817 15.183 16.64 15.0963 16.5824 15.0204C16.5249 14.9444 16.4526 14.8809 16.37 14.8334L12.5 12.5334V7.99344C12.5 7.59344 12.18 7.27344 11.78 7.27344Z" fill="black"/>
</svg>
